<svg width="22" height="24" viewBox="0 0 22 24" fill="none" xmlns="http://www.w3.org/2000/svg">
<path d="M10.6562 0C4.77138 0 0 5.20702 0 11.625C0 18.0467 4.77138 23.25 10.6562 23.25C16.5411 23.25 21.3125 18.0467 21.3125 11.625C21.3125 5.20702 16.5411 0 10.6562 0ZM10.6562 5.15625C11.653 5.15625 12.4609 6.03769 12.4609 7.125C12.4609 8.21231 11.653 9.09375 10.6562 9.09375C9.65955 9.09375 8.85156 8.21231 8.85156 7.125C8.85156 6.03769 9.65955 5.15625 10.6562 5.15625ZM13.0625 17.0625C13.0625 17.3731 12.8316 17.625 12.5469 17.625H8.76562C8.48087 17.625 8.25 17.3731 8.25 17.0625V15.9375C8.25 15.6269 8.48087 15.375 8.76562 15.375H9.28125V12.375H8.76562C8.48087 12.375 8.25 12.1231 8.25 11.8125V10.6875C8.25 10.3769 8.48087 10.125 8.76562 10.125H11.5156C11.8004 10.125 12.0312 10.3769 12.0312 10.6875V15.375H12.5469C12.8316 15.375 13.0625 15.6269 13.0625 15.9375V17.0625Z" fill="black"/>
</svg>
