<svg width="22" height="24" viewBox="0 0 22 24" fill="none" xmlns="http://www.w3.org/2000/svg">
<path d="M20.9 1.5H1.1C0.492594 1.5 0 2.17172 0 3V21C0 21.8283 0.492594 22.5 1.1 22.5H20.9C21.5074 22.5 22 21.8283 22 21V3C22 2.17172 21.5074 1.5 20.9 1.5ZM6.05 15.3694V16.125C6.05 16.3322 5.92694 16.5 5.775 16.5H5.225C5.07306 16.5 4.95 16.3322 4.95 16.125V15.3614C4.56191 15.3342 4.18447 15.1495 3.87166 14.8294C3.73759 14.692 3.73072 14.4183 3.85206 14.2603L4.25597 13.7348C4.35119 13.6111 4.49281 13.6055 4.60419 13.7006C4.73722 13.8141 4.88812 13.875 5.04487 13.875H6.01116C6.23459 13.875 6.41678 13.5975 6.41678 13.2567C6.41678 12.9778 6.29269 12.7322 6.11531 12.66L4.56844 12.0272C3.92941 11.7656 3.48288 10.9294 3.48288 9.99328C3.48288 8.84391 4.13772 7.91016 4.94966 7.88062V7.125C4.94966 6.91781 5.07272 6.75 5.22466 6.75H5.77466C5.92659 6.75 6.04966 6.91781 6.04966 7.125V7.88859C6.43775 7.91578 6.81519 8.1 7.128 8.42062C7.26206 8.55797 7.26894 8.83172 7.14759 8.98969L6.74369 9.51516C6.64847 9.63891 6.50684 9.64453 6.39547 9.54938C6.26244 9.43547 6.11153 9.375 5.95478 9.375H4.9885C4.76506 9.375 4.58288 9.6525 4.58288 9.99328C4.58288 10.2722 4.70697 10.5178 4.88434 10.59L6.43122 11.2228C7.07025 11.4844 7.51678 12.3206 7.51678 13.2567C7.51678 14.4066 6.86194 15.3398 6.05 15.3694V15.3694ZM14.3 14.625C14.3 14.8322 14.1769 15 14.025 15H10.175C10.0231 15 9.9 14.8322 9.9 14.625V13.875C9.9 13.6678 10.0231 13.5 10.175 13.5H14.025C14.1769 13.5 14.3 13.6678 14.3 13.875V14.625ZM19.8 14.625C19.8 14.8322 19.6769 15 19.525 15H16.775C16.6231 15 16.5 14.8322 16.5 14.625V13.875C16.5 13.6678 16.6231 13.5 16.775 13.5H19.525C19.6769 13.5 19.8 13.6678 19.8 13.875V14.625ZM19.8 10.125C19.8 10.3322 19.6769 10.5 19.525 10.5H10.175C10.0231 10.5 9.9 10.3322 9.9 10.125V9.375C9.9 9.16781 10.0231 9 10.175 9H19.525C19.6769 9 19.8 9.16781 19.8 9.375V10.125Z" fill="black"/>
</svg>
