<svg width="22" height="18" viewBox="0 0 22 18" fill="none" xmlns="http://www.w3.org/2000/svg">
<path d="M12.375 3.11906V2.25H13.0625C13.4423 2.25 13.75 1.91438 13.75 1.5V0.75C13.75 0.335625 13.4423 0 13.0625 0H8.9375C8.55766 0 8.25 0.335625 8.25 0.75V1.5C8.25 1.91438 8.55766 2.25 8.9375 2.25H9.625V3.11906C4.96246 3.84891 1.375 8.21157 1.375 13.5H20.625C20.625 8.21157 17.0375 3.84891 12.375 3.11906ZM21.3125 15H0.6875C0.307656 15 0 15.3356 0 15.75V17.25C0 17.6644 0.307656 18 0.6875 18H21.3125C21.6923 18 22 17.6644 22 17.25V15.75C22 15.3356 21.6923 15 21.3125 15Z" fill="black"/>
</svg>
